<?xml version="1.0" encoding="UTF-8"?>
<svg width="71px" height="83px" viewBox="0 0 71 83" version="1.1" xmlns="http://www.w3.org/2000/svg" xmlns:xlink="http://www.w3.org/1999/xlink">
    <title>Combined-Shape</title>
    <g id="Page-1" stroke="none" stroke-width="1" fill="none" fill-rule="evenodd">
        <g id="Map-Icon" transform="translate(-24.000000, -14.000000)" fill="#48506B" fill-rule="nonzero">
            <path d="M59.5,14 C80.8,14 95,31.7713865 95,49.542773 C95,60.5968704 84.6986637,75.776467 64.0959909,95.081563 C61.4662354,97.5456939 57.4102591,97.6479405 54.6599773,95.319434 L54.6599773,95.319434 L53.5936047,94.4105408 C33.8645348,77.479334 24,62.5234114 24,49.542773 C24,28.2171092 38.2,14 59.5,14 Z M59.5,32.9561456 C52.9646306,32.9561456 47.6666667,38.2604929 47.6666667,44.8037366 C47.6666667,51.3469803 52.9646306,56.6513276 59.5,56.6513276 C66.0353694,56.6513276 71.3333333,51.3469803 71.3333333,44.8037366 C71.3333333,38.2604929 66.0353694,32.9561456 59.5,32.9561456 Z" id="Combined-Shape"></path>
        </g>
    </g>
</svg>